<?xml version="1.0" encoding="UTF-8"?>
<!DOCTYPE svg PUBLIC "-//W3C//DTD SVG 1.1//EN" "http://www.w3.org/Graphics/SVG/1.1/DTD/svg11.dtd">
<svg xmlns="http://www.w3.org/2000/svg" xmlns:xlink="http://www.w3.org/1999/xlink" version="1.1" width="373px" height="187px" viewBox="-0.5 -0.5 373 187"><defs/><g><ellipse cx="90" cy="90" rx="90" ry="90" fill="#e8f3ff" stroke="rgb(0, 0, 0)" stroke-width="0.1" pointer-events="all"/><ellipse cx="282" cy="90" rx="90" ry="90" fill="#ffeeee" stroke="rgb(0, 0, 0)" transform="rotate(90,282,90)" pointer-events="all"/><ellipse cx="195" cy="111" rx="75" ry="75" fill="none" stroke="rgb(0, 0, 0)" transform="rotate(90,195,111)" pointer-events="all"/><rect x="38" y="52" width="18.88" height="50" fill="none" stroke="none" pointer-events="all"/><ellipse cx="47.19" cy="56.13" rx="4.139193981730252" ry="4.127048351203722" fill="#99ccff" stroke="none" pointer-events="all"/><path d="M 42.3 99.71 C 42.3 100.97 43.34 102 44.61 102 C 45.9 102 46.94 100.98 46.94 99.71 L 46.94 80.55 L 47.97 80.55 L 47.97 99.71 C 47.97 100.97 49.01 102 50.29 102 C 51.56 102 52.6 100.98 52.6 99.71 L 52.61 66.67 L 53.63 66.67 L 53.63 78.85 C 53.63 81.3 56.88 81.3 56.87 78.85 L 56.87 66.41 C 56.87 63.71 55.26 61.06 52.04 61.06 L 42.76 61.05 C 39.83 61.05 38 63.4 38 66.34 L 38 78.85 C 38 81.28 41.26 81.28 41.26 78.85 L 41.26 66.67 L 42.3 66.67 L 42.3 99.71 Z" fill="#99ccff" stroke="none" pointer-events="all"/><rect x="263" y="10" width="23.98" height="50" fill="none" stroke="none" pointer-events="all"/><path d="M 278.4 18.95 C 281.23 18.95 282.38 21.27 282.81 22.54 L 286.28 33.89 C 286.98 36.33 283.85 37.34 283.11 34.97 L 279.98 24.55 L 279.07 24.55 L 284.49 43.09 L 279.5 43.09 L 279.5 57.54 C 279.5 60 275.77 59.99 275.77 57.54 L 275.77 42.99 L 274.25 42.99 L 274.25 57.52 C 274.25 60 270.5 60 270.5 57.52 L 270.5 43.09 L 265.49 43.09 L 270.87 24.55 L 270.03 24.55 L 266.9 35.01 C 266.15 37.29 263 36.35 263.72 33.91 L 267.2 22.55 C 267.57 21.25 268.71 18.96 271.57 18.96 L 278.4 18.96 Z" fill="#ffcccc" stroke="none" pointer-events="all"/><ellipse cx="275" cy="14.08" rx="4.052118451025057" ry="4.0759240759240765" fill="#ffcccc" stroke="none" pointer-events="all"/><rect x="281" y="108" width="23.98" height="50" fill="none" stroke="none" pointer-events="all"/><path d="M 296.4 116.95 C 299.23 116.95 300.38 119.27 300.81 120.54 L 304.28 131.89 C 304.98 134.33 301.85 135.34 301.11 132.97 L 297.98 122.55 L 297.07 122.55 L 302.49 141.09 L 297.5 141.09 L 297.5 155.54 C 297.5 158 293.77 157.99 293.77 155.54 L 293.77 140.99 L 292.25 140.99 L 292.25 155.52 C 292.25 158 288.5 158 288.5 155.52 L 288.5 141.09 L 283.49 141.09 L 288.87 122.55 L 288.03 122.55 L 284.9 133.01 C 284.15 135.29 281 134.35 281.72 131.91 L 285.2 120.55 C 285.57 119.25 286.71 116.96 289.57 116.96 L 296.4 116.96 Z" fill="#ffcccc" stroke="none" pointer-events="all"/><ellipse cx="293" cy="112.08" rx="4.052118451025057" ry="4.0759240759240765" fill="#ffcccc" stroke="none" pointer-events="all"/><rect x="315" y="98" width="23.98" height="50" fill="none" stroke="none" pointer-events="all"/><path d="M 330.4 106.95 C 333.23 106.95 334.38 109.27 334.81 110.54 L 338.28 121.89 C 338.98 124.33 335.85 125.34 335.11 122.97 L 331.98 112.55 L 331.07 112.55 L 336.49 131.09 L 331.5 131.09 L 331.5 145.54 C 331.5 148 327.77 147.99 327.77 145.54 L 327.77 130.99 L 326.25 130.99 L 326.25 145.52 C 326.25 148 322.5 148 322.5 145.52 L 322.5 131.09 L 317.49 131.09 L 322.87 112.55 L 322.03 112.55 L 318.9 123.01 C 318.15 125.29 315 124.35 315.72 121.91 L 319.2 110.55 C 319.57 109.25 320.71 106.96 323.57 106.96 L 330.4 106.96 Z" fill="#ffcccc" stroke="none" pointer-events="all"/><ellipse cx="327" cy="102.08" rx="4.052118451025057" ry="4.0759240759240765" fill="#ffcccc" stroke="none" pointer-events="all"/><rect x="326" y="39" width="23.98" height="50" fill="none" stroke="none" pointer-events="all"/><path d="M 341.4 47.95 C 344.23 47.95 345.38 50.27 345.81 51.54 L 349.28 62.89 C 349.98 65.33 346.85 66.34 346.11 63.97 L 342.98 53.55 L 342.07 53.55 L 347.49 72.09 L 342.5 72.09 L 342.5 86.54 C 342.5 89 338.77 88.99 338.77 86.54 L 338.77 71.99 L 337.25 71.99 L 337.25 86.52 C 337.25 89 333.5 89 333.5 86.52 L 333.5 72.09 L 328.49 72.09 L 333.87 53.55 L 333.03 53.55 L 329.9 64.01 C 329.15 66.29 326 65.35 326.72 62.91 L 330.2 51.55 C 330.57 50.25 331.71 47.96 334.57 47.96 L 341.4 47.96 Z" fill="#ffcccc" stroke="none" pointer-events="all"/><ellipse cx="338" cy="43.08" rx="4.052118451025057" ry="4.0759240759240765" fill="#ffcccc" stroke="none" pointer-events="all"/><rect x="235" y="88" width="23.98" height="50" fill="none" stroke="none" pointer-events="all"/><path d="M 250.4 96.95 C 253.23 96.95 254.38 99.27 254.81 100.54 L 258.28 111.89 C 258.98 114.33 255.85 115.34 255.11 112.97 L 251.98 102.55 L 251.07 102.55 L 256.49 121.09 L 251.5 121.09 L 251.5 135.54 C 251.5 138 247.77 137.99 247.77 135.54 L 247.77 120.99 L 246.25 120.99 L 246.25 135.52 C 246.25 138 242.5 138 242.5 135.52 L 242.5 121.09 L 237.49 121.09 L 242.87 102.55 L 242.03 102.55 L 238.9 113.01 C 238.15 115.29 235 114.35 235.72 111.91 L 239.2 100.55 C 239.57 99.25 240.71 96.96 243.57 96.96 L 250.4 96.96 Z" fill="#ff6666" stroke="none" pointer-events="all"/><ellipse cx="247" cy="92.08" rx="4.052118451025057" ry="4.0759240759240765" fill="#ff6666" stroke="none" pointer-events="all"/><rect x="292" y="45" width="23.98" height="50" fill="none" stroke="none" pointer-events="all"/><path d="M 307.4 53.95 C 310.23 53.95 311.38 56.27 311.81 57.54 L 315.28 68.89 C 315.98 71.33 312.85 72.34 312.11 69.97 L 308.98 59.55 L 308.07 59.55 L 313.49 78.09 L 308.5 78.09 L 308.5 92.54 C 308.5 95 304.77 94.99 304.77 92.54 L 304.77 77.99 L 303.25 77.99 L 303.25 92.52 C 303.25 95 299.5 95 299.5 92.52 L 299.5 78.09 L 294.49 78.09 L 299.87 59.55 L 299.03 59.55 L 295.9 70.01 C 295.15 72.29 292 71.35 292.72 68.91 L 296.2 57.55 C 296.57 56.25 297.71 53.96 300.57 53.96 L 307.4 53.96 Z" fill="#ffcccc" stroke="none" pointer-events="all"/><ellipse cx="304" cy="49.08" rx="4.052118451025057" ry="4.0759240759240765" fill="#ffcccc" stroke="none" pointer-events="all"/><rect x="203" y="68" width="23.98" height="50" fill="none" stroke="none" pointer-events="all"/><path d="M 218.4 76.95 C 221.23 76.95 222.38 79.27 222.81 80.54 L 226.28 91.89 C 226.98 94.33 223.85 95.34 223.11 92.97 L 219.98 82.55 L 219.07 82.55 L 224.49 101.09 L 219.5 101.09 L 219.5 115.54 C 219.5 118 215.77 117.99 215.77 115.54 L 215.77 100.99 L 214.25 100.99 L 214.25 115.52 C 214.25 118 210.5 118 210.5 115.52 L 210.5 101.09 L 205.49 101.09 L 210.87 82.55 L 210.03 82.55 L 206.9 93.01 C 206.15 95.29 203 94.35 203.72 91.91 L 207.2 80.55 C 207.57 79.25 208.71 76.96 211.57 76.96 L 218.4 76.96 Z" fill="#ff6666" stroke="none" pointer-events="all"/><ellipse cx="215" cy="72.08" rx="4.052118451025057" ry="4.0759240759240765" fill="#ff6666" stroke="none" pointer-events="all"/><rect x="78" y="42" width="18.88" height="50" fill="none" stroke="none" pointer-events="all"/><ellipse cx="87.19" cy="46.13" rx="4.139193981730252" ry="4.127048351203722" fill="#99ccff" stroke="none" pointer-events="all"/><path d="M 82.3 89.71 C 82.3 90.97 83.34 92 84.61 92 C 85.9 92 86.94 90.98 86.94 89.71 L 86.94 70.55 L 87.97 70.55 L 87.97 89.71 C 87.97 90.97 89.01 92 90.29 92 C 91.56 92 92.6 90.98 92.6 89.71 L 92.61 56.67 L 93.63 56.67 L 93.63 68.85 C 93.63 71.3 96.88 71.3 96.87 68.85 L 96.87 56.41 C 96.87 53.71 95.26 51.06 92.04 51.06 L 82.76 51.05 C 79.83 51.05 78 53.4 78 56.34 L 78 68.85 C 78 71.28 81.26 71.28 81.26 68.85 L 81.26 56.67 L 82.3 56.67 L 82.3 89.71 Z" fill="#99ccff" stroke="none" pointer-events="all"/><rect x="68" y="112" width="18.88" height="50" fill="none" stroke="none" pointer-events="all"/><ellipse cx="77.19" cy="116.13" rx="4.139193981730252" ry="4.127048351203722" fill="#99ccff" stroke="none" pointer-events="all"/><path d="M 72.3 159.71 C 72.3 160.97 73.34 162 74.61 162 C 75.9 162 76.94 160.98 76.94 159.71 L 76.94 140.55 L 77.97 140.55 L 77.97 159.71 C 77.97 160.97 79.01 162 80.29 162 C 81.56 162 82.6 160.98 82.6 159.71 L 82.61 126.67 L 83.63 126.67 L 83.63 138.85 C 83.63 141.3 86.88 141.3 86.87 138.85 L 86.87 126.41 C 86.87 123.71 85.26 121.06 82.04 121.06 L 72.76 121.05 C 69.83 121.05 68 123.4 68 126.34 L 68 138.85 C 68 141.28 71.26 141.28 71.26 138.85 L 71.26 126.67 L 72.3 126.67 L 72.3 159.71 Z" fill="#99ccff" stroke="none" pointer-events="all"/><rect x="138" y="82" width="18.88" height="50" fill="none" stroke="none" pointer-events="all"/><ellipse cx="147.19" cy="86.13" rx="4.139193981730252" ry="4.127048351203722" fill="#3399ff" stroke="none" pointer-events="all"/><path d="M 142.3 129.71 C 142.3 130.97 143.34 132 144.61 132 C 145.9 132 146.94 130.98 146.94 129.71 L 146.94 110.55 L 147.97 110.55 L 147.97 129.71 C 147.97 130.97 149.01 132 150.29 132 C 151.56 132 152.6 130.98 152.6 129.71 L 152.61 96.67 L 153.63 96.67 L 153.63 108.85 C 153.63 111.3 156.88 111.3 156.87 108.85 L 156.87 96.41 C 156.87 93.71 155.26 91.06 152.04 91.06 L 142.76 91.05 C 139.83 91.05 138 93.4 138 96.34 L 138 108.85 C 138 111.28 141.26 111.28 141.26 108.85 L 141.26 96.67 L 142.3 96.67 L 142.3 129.71 Z" fill="#3399ff" stroke="none" pointer-events="all"/></g></svg>