<?xml version="1.0" encoding="UTF-8"?>
<!DOCTYPE svg PUBLIC "-//W3C//DTD SVG 1.1//EN" "http://www.w3.org/Graphics/SVG/1.1/DTD/svg11.dtd">
<svg xmlns="http://www.w3.org/2000/svg" xmlns:xlink="http://www.w3.org/1999/xlink" version="1.1" width="238px" height="183px" viewBox="-0.5 -0.5 238 183"><defs/><g><rect x="1" y="1" width="236" height="181" fill="rgb(255, 255, 255)" stroke="rgb(0, 0, 0)" stroke-width="2" pointer-events="all"/><ellipse cx="48" cy="49" rx="40" ry="40" fill="rgb(255, 255, 255)" stroke="rgb(0, 0, 0)" pointer-events="all"/><ellipse cx="49.5" cy="69.5" rx="7.5" ry="7.5" fill="#dae8fc" stroke="#6c8ebf" pointer-events="all"/><ellipse cx="33.5" cy="32.5" rx="7.5" ry="7.5" fill="#dae8fc" stroke="#6c8ebf" pointer-events="all"/><ellipse cx="63" cy="53.5" rx="7.5" ry="7.5" fill="#dae8fc" stroke="#6c8ebf" pointer-events="all"/><ellipse cx="23.5" cy="55.5" rx="7.5" ry="7.5" fill="#dae8fc" stroke="#6c8ebf" pointer-events="all"/><ellipse cx="63" cy="30.5" rx="7.5" ry="7.5" fill="#dae8fc" stroke="#6c8ebf" pointer-events="all"/><ellipse cx="188" cy="49" rx="40" ry="40" fill="rgb(255, 255, 255)" stroke="rgb(0, 0, 0)" pointer-events="all"/><ellipse cx="173.5" cy="32.5" rx="7.5" ry="7.5" fill="#f8cecc" stroke="#b85450" pointer-events="all"/><ellipse cx="186.5" cy="49" rx="7.5" ry="7.5" fill="#f8cecc" stroke="#b85450" pointer-events="all"/><ellipse cx="140" cy="120" rx="40" ry="40" fill="rgb(255, 255, 255)" stroke="rgb(0, 0, 0)" pointer-events="all"/><ellipse cx="144.5" cy="145.5" rx="7.5" ry="7.5" fill="#d5e8d4" stroke="#82b366" pointer-events="all"/><ellipse cx="125.5" cy="103.5" rx="7.5" ry="7.5" fill="#d5e8d4" stroke="#82b366" pointer-events="all"/><ellipse cx="153.5" cy="116.5" rx="7.5" ry="7.5" fill="#d5e8d4" stroke="#82b366" pointer-events="all"/><ellipse cx="54" cy="134" rx="40" ry="40" fill="rgb(255, 255, 255)" stroke="rgb(0, 0, 0)" pointer-events="all"/><ellipse cx="58.5" cy="159.5" rx="7.5" ry="7.5" fill="#fff2cc" stroke="#d6b656" pointer-events="all"/><ellipse cx="39.5" cy="117.5" rx="7.5" ry="7.5" fill="#fff2cc" stroke="#d6b656" pointer-events="all"/><ellipse cx="67.5" cy="130.5" rx="7.5" ry="7.5" fill="#fff2cc" stroke="#d6b656" pointer-events="all"/><ellipse cx="130.5" cy="127.5" rx="7.5" ry="7.5" fill="#d5e8d4" stroke="#82b366" pointer-events="all"/></g></svg>